<svg xmlns="http://www.w3.org/2000/svg" viewBox="0 0 320 320"><filter id="b"><feGaussianBlur stdDeviation="12" /></filter><path d="M0 0h320v320H0z" fill="#909090" /><g filter="url(#b)" transform="scale(1.250000) translate(0.5 0.5)"><g transform="translate(132.917820 170.895336) rotate(193.772784) scale(54.848610 88.200791)"><ellipse fill="#090909" fill-opacity=".501961" cx="0" cy="0" rx="1" ry="1" /></g><g transform="translate(29.155670 206.513734) rotate(84.686755) scale(115.110690 43.748025)"><ellipse fill="#fff" fill-opacity=".501961" cx="0" cy="0" rx="1" ry="1" /></g><g transform="translate(220.953239 197.784703) rotate(289.055662) scale(90.671220 42.586787)"><ellipse fill="#fff" fill-opacity=".501961" cx="0" cy="0" rx="1" ry="1" /></g><g transform="translate(76.405358 148.707769) rotate(289.555761) scale(30.419404 17.821063)"><ellipse fill="#000" fill-opacity=".501961" cx="0" cy="0" rx="1" ry="1" /></g><ellipse fill="#1e1e1e" fill-opacity=".501961" cx="255" cy="12" rx="37" ry="46" /><ellipse fill="#fdfdfd" fill-opacity=".501961" cx="32" cy="205" rx="50" ry="50" /><g transform="translate(222.559117 195.067075) rotate(55.983680) scale(35.607427 56.561527)"><ellipse fill="#fff" fill-opacity=".501961" cx="0" cy="0" rx="1" ry="1" /></g><g transform="translate(32.199485 48.740075) rotate(138.391606) scale(47.754433 43.799718)"><ellipse fill="#565656" fill-opacity=".501961" cx="0" cy="0" rx="1" ry="1" /></g></g></svg>