<svg xmlns="http://www.w3.org/2000/svg" viewBox="0 0 1440 1080"><filter id="b"><feGaussianBlur stdDeviation="12" /></filter><path d="M0 0h1440v1080H0z" fill="#828282" /><g filter="url(#b)" transform="scale(5.625000) translate(0.5 0.5)"><ellipse fill="#000" fill-opacity=".501961" cx="131" cy="31" rx="255" ry="36" /><g transform="translate(113.985241 114.115876) rotate(179.795926) scale(228.558272 48.936703)"><ellipse fill="#d9d9d9" fill-opacity=".501961" cx="0" cy="0" rx="1" ry="1" /></g><g transform="translate(116.494034 174.637334) rotate(275.046900) scale(67.918186 255.000000)"><ellipse fill="#a4a4a4" fill-opacity=".501961" cx="0" cy="0" rx="1" ry="1" /></g><g transform="translate(67.227683 42.729736) rotate(361.198104) scale(220.770362 12.491199)"><ellipse fill="#0f0f0f" fill-opacity=".501961" cx="0" cy="0" rx="1" ry="1" /></g><g transform="translate(178.940277 83.571275) rotate(93.377753) scale(11.472704 201.015742)"><ellipse fill="#dedede" fill-opacity=".501961" cx="0" cy="0" rx="1" ry="1" /></g><ellipse fill="#878787" fill-opacity=".501961" cx="116" cy="11" rx="97" ry="6" /><ellipse fill="#9f9f9f" fill-opacity=".501961" cx="104" cy="180" rx="240" ry="61" /><g transform="translate(79 0) rotate(117) scale(21 38)"><path d="M0 0h1440v1080H0z" fill="#000" /></g></g></svg>