<svg xmlns="http://www.w3.org/2000/svg" viewBox="0 0 1440 1440"><filter id="b"><feGaussianBlur stdDeviation="12" /></filter><path d="M0 0h1440v1440H0z" fill="#8f8c91" /><g filter="url(#b)" transform="scale(5.625000) translate(0.5 0.5)"><g transform="translate(149.846126 104.363608) rotate(411.671429) scale(92.575374 53.774015)"><ellipse fill="#0a080d" fill-opacity=".501961" cx="0" cy="0" rx="1" ry="1" /></g><g transform="translate(164.501625 240.387970) rotate(87.627254) scale(23.467887 245.244644)"><ellipse fill="#fff" fill-opacity=".501961" cx="0" cy="0" rx="1" ry="1" /></g><g transform="translate(43.414373 202.740417) rotate(43.105444) scale(34.185400 86.208637)"><ellipse fill="#eae6e9" fill-opacity=".501961" cx="0" cy="0" rx="1" ry="1" /></g><g transform="translate(240.242955 192.403245) rotate(295.964469) scale(161.847789 23.637841)"><ellipse fill="#f5f2f4" fill-opacity=".501961" cx="0" cy="0" rx="1" ry="1" /></g><path fill="#efedef" fill-opacity=".501961" d="M155.425344 187.377576 201.493262 232.418963 175.220897 179.139123 152.855943 97.07233z" /><ellipse fill="#2c2633" fill-opacity=".501961" cx="130" cy="209" rx="46" ry="16" /><ellipse fill="#25222a" fill-opacity=".501961" cx="1" cy="65" rx="19" ry="40" /><g transform="translate(253.730728 71.051247) rotate(359.595297) scale(10.279254 83.846150)"><ellipse fill="#fff" fill-opacity=".501961" cx="0" cy="0" rx="1" ry="1" /></g></g></svg>