<svg xmlns="http://www.w3.org/2000/svg" viewBox="0 0 1440 1440"><filter id="b"><feGaussianBlur stdDeviation="12" /></filter><path d="M0 0h1440v1440H0z" fill="#a4a4a4" /><g filter="url(#b)" transform="scale(5.625000) translate(0.5 0.5)"><g transform="translate(20.434016 59.765336) rotate(171.238983) scale(21.381474 89.174648)"><ellipse fill="#000" fill-opacity=".501961" cx="0" cy="0" rx="1" ry="1" /></g><g transform="translate(205.611556 122.250379) rotate(66.575866) scale(31.087897 93.439481)"><ellipse fill="#1e1e1e" fill-opacity=".501961" cx="0" cy="0" rx="1" ry="1" /></g><g transform="translate(135.619578 214.280816) rotate(91.807732) scale(46.213211 135.439880)"><ellipse fill="#fff" fill-opacity=".501961" cx="0" cy="0" rx="1" ry="1" /></g><g transform="translate(190.616221 29.757790) rotate(385.034175) scale(35.626903 56.563103)"><ellipse fill="#fff" fill-opacity=".501961" cx="0" cy="0" rx="1" ry="1" /></g><g transform="translate(253 15) rotate(184) scale(45 68)"><path d="M0 0h1440v1440H0z" fill="#000" /></g><g transform="translate(141.812567 97.762821) rotate(111.806429) scale(24.537849 40.027170)"><ellipse fill="#fff" fill-opacity=".501961" cx="0" cy="0" rx="1" ry="1" /></g><g transform="translate(14.863929 53.726496) rotate(116.158720) scale(83.106038 21.195106)"><ellipse fill="#0d0d0d" fill-opacity=".501961" cx="0" cy="0" rx="1" ry="1" /></g><path fill="#000" fill-opacity=".501961" d="M61 179 31 156 26 79z" /></g></svg>