<svg xmlns="http://www.w3.org/2000/svg" viewBox="0 0 1440 1440"><filter id="b"><feGaussianBlur stdDeviation="12" /></filter><path d="M0 0h1440v1440H0z" fill="#8f8f8f" /><g filter="url(#b)" transform="scale(5.625000) translate(0.5 0.5)"><g transform="translate(129.936216 123.489788) rotate(-115.666589) scale(62.491779 74.248696)"><ellipse fill="#080808" fill-opacity=".501961" cx="0" cy="0" rx="1" ry="1" /></g><g transform="translate(211.413644 33.692295) rotate(109.330511) scale(52.893840 253.057226)"><ellipse fill="#f0f0f0" fill-opacity=".501961" cx="0" cy="0" rx="1" ry="1" /></g><path fill="#fff" fill-opacity=".501961" d="M133.883654 202.016267 93.410023 160.866896 88.220772 133.329171 104.51985 133.147393z" /><g transform="translate(57.183858 53.610181) rotate(271.153145) scale(68.258940 23.328719)"><ellipse fill="#e6e6e6" fill-opacity=".501961" cx="0" cy="0" rx="1" ry="1" /></g><path fill="#181818" fill-opacity=".501961" d="M73 180 22 155l72-33z" /><g transform="translate(232.510649 110.053696) rotate(203.713076) scale(36.103099 20.950022)"><ellipse fill="#eaeaea" fill-opacity=".501961" cx="0" cy="0" rx="1" ry="1" /></g><ellipse fill="#0d0d0d" fill-opacity=".501961" cx="141" cy="146" rx="29" ry="37" /><g transform="translate(200.139580 197.541731) rotate(303.504038) scale(11.969941 20.984947)"><ellipse fill="#0a0a0a" fill-opacity=".501961" cx="0" cy="0" rx="1" ry="1" /></g></g></svg>