<svg xmlns="http://www.w3.org/2000/svg" viewBox="0 0 640 640"><filter id="b"><feGaussianBlur stdDeviation="12" /></filter><path d="M0 0h640v640H0z" fill="#a4a4a4" /><g filter="url(#b)" transform="scale(2.500000) translate(0.5 0.5)"><g transform="translate(95.614489 97.773198) rotate(2.290352) scale(255.000000 36.729783)"><ellipse fill="#000" fill-opacity=".501961" cx="0" cy="0" rx="1" ry="1" /></g><ellipse fill="#f7f7f7" fill-opacity=".501961" cx="135" cy="255" rx="126" ry="126" /><g transform="translate(132.465846 60.788951) rotate(194.165589) scale(69.805828 21.471272)"><ellipse fill="#f7f7f7" fill-opacity=".501961" cx="0" cy="0" rx="1" ry="1" /></g><ellipse fill="#f3f3f3" fill-opacity=".501961" cx="240" cy="31" rx="108" ry="28" /><g transform="translate(235.083752 81.780262) rotate(207.815950) scale(37.274787 20.075825)"><ellipse fill="#000" fill-opacity=".501961" cx="0" cy="0" rx="1" ry="1" /></g><g transform="translate(20.119398 30.086091) rotate(24.829528) scale(38.163358 23.201032)"><ellipse fill="#fff" fill-opacity=".501961" cx="0" cy="0" rx="1" ry="1" /></g><ellipse fill="#000" fill-opacity=".501961" cx="32" cy="81" rx="49" ry="24" /><path fill="#fff" fill-opacity=".501961" d="M224 90l-32-9 22 26z" /></g></svg>