<svg xmlns="http://www.w3.org/2000/svg" viewBox="0 0 640 640"><filter id="b"><feGaussianBlur stdDeviation="12" /></filter><path d="M0 0h640v640H0z" fill="#7d7d7d" /><g filter="url(#b)" transform="scale(2.500000) translate(0.5 0.5)"><g transform="translate(228.887260 146.376714) rotate(95.936279) scale(255.000000 44.261502)"><ellipse fill="#000" fill-opacity=".501961" cx="0" cy="0" rx="1" ry="1" /></g><g transform="translate(40.791443 205.766233) rotate(131.379342) scale(111.707107 36.871193)"><ellipse fill="#fff" fill-opacity=".501961" cx="0" cy="0" rx="1" ry="1" /></g><ellipse fill="#e0e0e0" fill-opacity=".501961" cx="154" cy="57" rx="45" ry="45" /><ellipse fill="#000" fill-opacity=".501961" cx="96" cy="225" rx="29" ry="21" /><g transform="translate(147.760682 173.043107) rotate(116.702984) scale(59.978628 12.982071)"><ellipse fill="#fefefe" fill-opacity=".501961" cx="0" cy="0" rx="1" ry="1" /></g><g transform="translate(197.036544 4.753725) rotate(39.984929) scale(21.725832 41.659180)"><ellipse fill="#000" fill-opacity=".501961" cx="0" cy="0" rx="1" ry="1" /></g><g transform="translate(130 254) rotate(344) scale(93 31)"><path d="M0 0h640v640H0z" fill="#fff" /></g><ellipse fill="#000" fill-opacity=".501961" cx="147" cy="111" rx="21" ry="21" /></g></svg>