<svg xmlns="http://www.w3.org/2000/svg" viewBox="0 0 640 640"><filter id="b"><feGaussianBlur stdDeviation="12" /></filter><path d="M0 0h640v640H0z" fill="#959595" /><g filter="url(#b)" transform="scale(2.500000) translate(0.5 0.5)"><g transform="translate(106.866959 152.533840) rotate(67.719758) scale(72.393195 40.950922)"><ellipse fill="#000" fill-opacity=".501961" cx="0" cy="0" rx="1" ry="1" /></g><g transform="translate(25.748494 159.330689) rotate(350.441425) scale(36.394769 161.488364)"><ellipse fill="#fff" fill-opacity=".501961" cx="0" cy="0" rx="1" ry="1" /></g><g transform="translate(168.527623 13.736686) rotate(90.798638) scale(43.596384 99.847699)"><ellipse fill="#000" fill-opacity=".501961" cx="0" cy="0" rx="1" ry="1" /></g><g transform="translate(147.736819 255.000000) rotate(-102.499757) scale(51.065632 255.000000)"><ellipse fill="#fff" fill-opacity=".501961" cx="0" cy="0" rx="1" ry="1" /></g><g transform="translate(63 189) rotate(90) scale(26 87)"><path d="M0 0h640v640H0z" fill="#000" /></g><g transform="translate(48.175481 15.897220) rotate(49.833541) scale(35.577742 21.435377)"><ellipse fill="#fff" fill-opacity=".501961" cx="0" cy="0" rx="1" ry="1" /></g><g transform="translate(145.309640 58.062624) rotate(165.496876) scale(47.795223 13.875581)"><ellipse fill="#f4f4f4" fill-opacity=".501961" cx="0" cy="0" rx="1" ry="1" /></g><g transform="translate(209.006916 85.959575) rotate(219.778355) scale(36.607031 26.359931)"><ellipse fill="#1d1d1d" fill-opacity=".501961" cx="0" cy="0" rx="1" ry="1" /></g></g></svg>