<svg xmlns="http://www.w3.org/2000/svg" viewBox="0 0 640 640"><filter id="b"><feGaussianBlur stdDeviation="12" /></filter><path d="M0 0h640v640H0z" fill="#606060" /><g filter="url(#b)" transform="scale(2.500000) translate(0.5 0.5)"><g transform="translate(30.238806 14.551487) rotate(34.011633) scale(86.751407 194.979159)"><ellipse fill="#fff" fill-opacity=".501961" cx="0" cy="0" rx="1" ry="1" /></g><g transform="translate(182.555256 198.877758) rotate(75.357440) scale(83.855321 255.000000)"><ellipse fill="#000" fill-opacity=".501961" cx="0" cy="0" rx="1" ry="1" /></g><g transform="translate(236.225106 24.316001) rotate(283.961073) scale(85.068171 24.738213)"><ellipse fill="#f0f0f0" fill-opacity=".501961" cx="0" cy="0" rx="1" ry="1" /></g><ellipse fill="#fff" fill-opacity=".501961" cx="13" cy="31" rx="95" ry="58" /><g transform="translate(131.495309 83.055263) rotate(156.006568) scale(26.727472 47.399298)"><ellipse fill="#000" fill-opacity=".501961" cx="0" cy="0" rx="1" ry="1" /></g><g transform="translate(68.439269 129.382282) rotate(262.808560) scale(21.862532 58.582050)"><ellipse fill="#b9b9b9" fill-opacity=".501961" cx="0" cy="0" rx="1" ry="1" /></g><path fill="#9d9d9d" fill-opacity=".501961" d="M271 69 119 70l83 47z" /><g transform="translate(101 94) rotate(285) scale(17 49)"><path d="M0 0h640v640H0z" fill="#000" /></g></g></svg>