<svg xmlns="http://www.w3.org/2000/svg" viewBox="0 0 640 640"><filter id="b"><feGaussianBlur stdDeviation="12" /></filter><path d="M0 0h640v640H0z" fill="#505050" /><g filter="url(#b)" transform="scale(2.500000) translate(0.5 0.5)"><g transform="translate(108.895481 24.827497) rotate(422.570307) scale(72.939490 27.316915)"><ellipse fill="#fff" fill-opacity=".501961" cx="0" cy="0" rx="1" ry="1" /></g><g transform="translate(227.372728 94.535311) rotate(7.087052) scale(79.429175 112.479249)"><ellipse fill="#000" fill-opacity=".501961" cx="0" cy="0" rx="1" ry="1" /></g><g transform="translate(13.436322 30.504233) rotate(255.063936) scale(73.211906 24.265031)"><ellipse fill="#e0e0e0" fill-opacity=".501961" cx="0" cy="0" rx="1" ry="1" /></g><g transform="translate(177.575332 225.904406) rotate(94.190767) scale(26.398477 50.112540)"><ellipse fill="#afafaf" fill-opacity=".501961" cx="0" cy="0" rx="1" ry="1" /></g><g transform="translate(157.153511 124.990286) rotate(188.934624) scale(71.657652 25.826024)"><ellipse fill="#000" fill-opacity=".501961" cx="0" cy="0" rx="1" ry="1" /></g><g transform="translate(78 136) rotate(340) scale(15 70)"><path d="M0 0h640v640H0z" fill="#eaeaea" /></g><ellipse fill="#898989" fill-opacity=".501961" cx="59" cy="210" rx="46" ry="46" /><g transform="translate(12 158) rotate(259) scale(49 43)"><path d="M0 0h640v640H0z" fill="#bababa" /></g></g></svg>