<svg xmlns="http://www.w3.org/2000/svg" viewBox="0 0 640 640"><filter id="b"><feGaussianBlur stdDeviation="12" /></filter><path d="M0 0h640v640H0z" fill="#494949" /><g filter="url(#b)" transform="scale(2.500000) translate(0.5 0.5)"><g transform="translate(53.418139 53.851483) rotate(-31.271673) scale(86.404854 25.152332)"><ellipse fill="#eaeaea" fill-opacity=".501961" cx="0" cy="0" rx="1" ry="1" /></g><g transform="translate(218.546466 226.996086) rotate(235.940501) scale(83.976217 57.754302)"><ellipse fill="#000" fill-opacity=".501961" cx="0" cy="0" rx="1" ry="1" /></g><ellipse fill="#d1d1d1" fill-opacity=".501961" cx="89" cy="97" rx="38" ry="27" /><ellipse fill="#000" fill-opacity=".501961" cx="77" cy="56" rx="18" ry="22" /><g transform="translate(235.349881 28.118393) rotate(301.363134) scale(37.415001 255.000000)"><ellipse fill="#050505" fill-opacity=".501961" cx="0" cy="0" rx="1" ry="1" /></g><g transform="translate(170.971470 105.462193) rotate(131.849095) scale(23.176382 46.118550)"><ellipse fill="#9c9c9c" fill-opacity=".501961" cx="0" cy="0" rx="1" ry="1" /></g><g transform="translate(19.081981 73.810671) rotate(317.344461) scale(52.305136 16.222115)"><ellipse fill="#fcfcfc" fill-opacity=".501961" cx="0" cy="0" rx="1" ry="1" /></g><ellipse fill="#000" fill-opacity=".501961" cx="128" cy="146" rx="57" ry="18" /></g></svg>