<svg xmlns="http://www.w3.org/2000/svg" viewBox="0 0 640 640"><filter id="b"><feGaussianBlur stdDeviation="12" /></filter><path d="M0 0h640v640H0z" fill="#8f8f8f" /><g filter="url(#b)" transform="scale(2.500000) translate(0.5 0.5)"><g transform="translate(109.937884 139.390578) rotate(64.789897) scale(40.202260 106.554589)"><ellipse fill="#000" fill-opacity=".501961" cx="0" cy="0" rx="1" ry="1" /></g><ellipse fill="#fff" fill-opacity=".501961" cx="216" cy="226" rx="82" ry="82" /><ellipse fill="#fff" fill-opacity=".501961" cx="29" cy="39" rx="38" ry="56" /><g transform="translate(175.086099 12.350624) rotate(113.397392) scale(61.510780 40.028268)"><ellipse fill="#fff" fill-opacity=".501961" cx="0" cy="0" rx="1" ry="1" /></g><g transform="translate(237.058420 69.275903) rotate(367.340652) scale(16.233271 81.820241)"><ellipse fill="#101010" fill-opacity=".501961" cx="0" cy="0" rx="1" ry="1" /></g><g transform="translate(101.179970 14.668786) rotate(289.438083) scale(65.051616 29.674808)"><ellipse fill="#232323" fill-opacity=".501961" cx="0" cy="0" rx="1" ry="1" /></g><g transform="translate(57.978377 150.616654) rotate(153.475079) scale(22.277106 41.354625)"><ellipse fill="#000" fill-opacity=".501961" cx="0" cy="0" rx="1" ry="1" /></g><g transform="translate(0.000000 217.902329) rotate(-3.311172) scale(13.667548 38.741598)"><ellipse fill="#000" fill-opacity=".501961" cx="0" cy="0" rx="1" ry="1" /></g></g></svg>