<svg xmlns="http://www.w3.org/2000/svg" viewBox="0 0 640 640"><filter id="b"><feGaussianBlur stdDeviation="12" /></filter><path d="M0 0h640v640H0z" fill="#a4a4a4" /><g filter="url(#b)" transform="scale(2.500000) translate(0.5 0.5)"><g transform="translate(134.352095 131.738539) rotate(92.177673) scale(45.823519 101.031896)"><ellipse fill="#000" fill-opacity=".501961" cx="0" cy="0" rx="1" ry="1" /></g><g transform="translate(157.810908 29.638698) rotate(97.901231) scale(51.258573 174.137064)"><ellipse fill="#fff" fill-opacity=".501961" cx="0" cy="0" rx="1" ry="1" /></g><g transform="translate(125 117) rotate(69) scale(46 105)"><path d="M0 0h640v640H0z" fill="#000" /></g><ellipse fill="#fff" fill-opacity=".501961" cx="209" cy="22" rx="109" ry="51" /><g transform="translate(109.444626 155.931831) rotate(157.890096) scale(50.359972 6.024224)"><ellipse fill="#fff" fill-opacity=".501961" cx="0" cy="0" rx="1" ry="1" /></g><g transform="translate(28.063154 220.417677) rotate(260.676320) scale(123.576537 34.795615)"><ellipse fill="#d9d9d9" fill-opacity=".501961" cx="0" cy="0" rx="1" ry="1" /></g><ellipse fill="#000" fill-opacity=".501961" cx="181" cy="144" rx="27" ry="24" /><ellipse fill="#f4f4f4" fill-opacity=".501961" cx="250" cy="97" rx="26" ry="26" /></g></svg>