<svg xmlns="http://www.w3.org/2000/svg" viewBox="0 0 640 640"><filter id="b"><feGaussianBlur stdDeviation="12" /></filter><path d="M0 0h640v640H0z" fill="#383838" /><g filter="url(#b)" transform="scale(2.500000) translate(0.5 0.5)"><ellipse fill="#fff" fill-opacity=".501961" cx="0" cy="14" rx="112" ry="33" /><g transform="translate(117.077691 126.725624) rotate(123.559125) scale(50.944117 26.380194)"><ellipse fill="#f5f5f5" fill-opacity=".501961" cx="0" cy="0" rx="1" ry="1" /></g><path fill="#fff" fill-opacity=".501961" d="M106.390958-14.70399 93.247408-16 92.245073 114.156602 106.985788 95.991108z" /><g transform="translate(48.619321 168.023237) rotate(273.346906) scale(73.780514 29.408705)"><ellipse fill="#000" fill-opacity=".501961" cx="0" cy="0" rx="1" ry="1" /></g><ellipse fill="#000" fill-opacity=".501961" cx="219" cy="45" rx="91" ry="91" /><g transform="translate(13.478182 21.611104) rotate(134.368174) scale(71.346270 22.197469)"><ellipse fill="#fff" fill-opacity=".501961" cx="0" cy="0" rx="1" ry="1" /></g><g transform="translate(194.286241 167.744679) rotate(152.700531) scale(120.761502 33.167946)"><ellipse fill="#000" fill-opacity=".501961" cx="0" cy="0" rx="1" ry="1" /></g><g transform="translate(67.146890 20.479103) rotate(90.690957) scale(72.189505 17.036365)"><ellipse fill="#050505" fill-opacity=".501961" cx="0" cy="0" rx="1" ry="1" /></g></g></svg>