<svg xmlns="http://www.w3.org/2000/svg" viewBox="0 0 640 640"><filter id="b"><feGaussianBlur stdDeviation="12" /></filter><path d="M0 0h640v640H0z" fill="#565656" /><g filter="url(#b)" transform="scale(2.500000) translate(0.5 0.5)"><g transform="translate(135.877002 246.220336) rotate(95.443947) scale(24.891878 255.000000)"><ellipse fill="#efefef" fill-opacity=".501961" cx="0" cy="0" rx="1" ry="1" /></g><g transform="translate(188.743631 52.974886) rotate(166.616748) scale(28.168180 44.614332)"><ellipse fill="#ededed" fill-opacity=".501961" cx="0" cy="0" rx="1" ry="1" /></g><g transform="translate(171.922859 146.411553) rotate(172.769586) scale(194.838456 45.474328)"><ellipse fill="#000" fill-opacity=".501961" cx="0" cy="0" rx="1" ry="1" /></g><g transform="translate(249.324193 24.053113) rotate(188.428583) scale(14.365754 32.739667)"><ellipse fill="#fff" fill-opacity=".501961" cx="0" cy="0" rx="1" ry="1" /></g><ellipse fill="#ddd" fill-opacity=".501961" cx="79" cy="69" rx="26" ry="32" /><g transform="translate(72.911363 20.139131) rotate(257.108923) scale(24.684142 115.469314)"><ellipse fill="#040404" fill-opacity=".501961" cx="0" cy="0" rx="1" ry="1" /></g><g transform="translate(230.544150 227.111569) rotate(150.812855) scale(20.837854 51.974137)"><ellipse fill="#b7b7b7" fill-opacity=".501961" cx="0" cy="0" rx="1" ry="1" /></g><g transform="translate(210 37) rotate(-38) scale(58 27)"><path d="M0 0h640v640H0z" fill="#131313" /></g></g></svg>