<svg xmlns="http://www.w3.org/2000/svg" viewBox="0 0 1080 1080"><filter id="b"><feGaussianBlur stdDeviation="12" /></filter><path d="M0 0h1080v1080H0z" fill="#4d4d4d" /><g filter="url(#b)" transform="scale(4.218750) translate(0.5 0.5)"><g transform="translate(163.826300 12.718013) rotate(358.452882) scale(59.775341 18.177865)"><ellipse fill="#fff" fill-opacity=".501961" cx="0" cy="0" rx="1" ry="1" /></g><g transform="translate(92.472558 235.723422) rotate(193.363823) scale(69.461651 48.976331)"><ellipse fill="#c2c2c2" fill-opacity=".501961" cx="0" cy="0" rx="1" ry="1" /></g><ellipse fill="#000" fill-opacity=".501961" cx="116" cy="136" rx="120" ry="54" /><g transform="translate(91 68) rotate(296) scale(30 56)"><path d="M0 0h1080v1080H0z" fill="#fff" /></g><ellipse fill="#d4d4d4" fill-opacity=".501961" cx="16" cy="43" rx="17" ry="80" /><g transform="translate(242 30) rotate(282) scale(81 42)"><path d="M0 0h1080v1080H0z" fill="#000" /></g><ellipse fill="#000" fill-opacity=".501961" cx="176" cy="91" rx="29" ry="63" /><g transform="translate(250.391346 133.568646) rotate(284.477685) scale(55.466572 13.791488)"><ellipse fill="#d9d9d9" fill-opacity=".501961" cx="0" cy="0" rx="1" ry="1" /></g></g></svg>