<svg xmlns="http://www.w3.org/2000/svg" viewBox="0 0 1080 1080"><filter id="b"><feGaussianBlur stdDeviation="12" /></filter><path d="M0 0h1080v1080H0z" fill="#616161" /><g filter="url(#b)" transform="scale(4.218750) translate(0.5 0.5)"><path fill="#fff" fill-opacity=".501961" d="M127 269 41 257 27-16z" /><ellipse fill="#0e0e0e" fill-opacity=".501961" cx="204" cy="9" rx="152" ry="152" /><g transform="translate(182.922117 233.363040) rotate(66.070180) scale(65.456687 35.185461)"><ellipse fill="#c9c9c9" fill-opacity=".501961" cx="0" cy="0" rx="1" ry="1" /></g><g transform="translate(44.021854 58.618786) rotate(267.740267) scale(212.877005 10.026215)"><ellipse fill="#fff" fill-opacity=".501961" cx="0" cy="0" rx="1" ry="1" /></g><g transform="translate(102.232025 94.684190) rotate(361.552912) scale(4.680073 73.337982)"><ellipse fill="#fff" fill-opacity=".501961" cx="0" cy="0" rx="1" ry="1" /></g><g transform="translate(193.258488 113.251753) rotate(360.917112) scale(5.506127 50.631650)"><ellipse fill="#fff" fill-opacity=".501961" cx="0" cy="0" rx="1" ry="1" /></g><g transform="translate(7.953991 144.182000) rotate(175.287543) scale(20.797929 255.000000)"><ellipse fill="#202020" fill-opacity=".501961" cx="0" cy="0" rx="1" ry="1" /></g><path d="M0 0h1080v1080H0z" fill="#010101" /></g></svg>