<svg xmlns="http://www.w3.org/2000/svg" viewBox="0 0 640 640"><filter id="b"><feGaussianBlur stdDeviation="12" /></filter><path d="M0 0h640v640H0z" fill="#676767" /><g filter="url(#b)" transform="scale(2.500000) translate(0.5 0.5)"><ellipse fill="#b7b7b7" fill-opacity=".501961" cx="85" cy="167" rx="84" ry="84" /><path fill="#000" fill-opacity=".501961" d="M271 7 251 198 197 18z" /><g transform="translate(129.178657 133.714704) rotate(204.618949) scale(47.832685 22.214529)"><ellipse fill="#fff" fill-opacity=".501961" cx="0" cy="0" rx="1" ry="1" /></g><g transform="translate(26.073353 32.511977) rotate(202.171432) scale(78.326866 36.339505)"><ellipse fill="#191919" fill-opacity=".501961" cx="0" cy="0" rx="1" ry="1" /></g><g transform="translate(206.094257 95.672194) rotate(324.703219) scale(37.716337 23.138804)"><ellipse fill="#bbb" fill-opacity=".501961" cx="0" cy="0" rx="1" ry="1" /></g><ellipse fill="#1a1a1a" fill-opacity=".501961" cx="150" cy="22" rx="29" ry="97" /><g transform="translate(255.000000 146.799722) rotate(348.049984) scale(96.627654 33.325451)"><ellipse fill="#272727" fill-opacity=".501961" cx="0" cy="0" rx="1" ry="1" /></g><g transform="translate(235.006426 235.673870) rotate(291.468104) scale(17.497199 50.860265)"><ellipse fill="#1f1f1f" fill-opacity=".501961" cx="0" cy="0" rx="1" ry="1" /></g></g></svg>