<svg xmlns="http://www.w3.org/2000/svg" viewBox="0 0 640 640"><filter id="b"><feGaussianBlur stdDeviation="12" /></filter><path d="M0 0h640v640H0z" fill="#6a6a6a" /><g filter="url(#b)" transform="scale(2.500000) translate(0.5 0.5)"><g transform="translate(32.765711 31.570911) rotate(75.632524) scale(40.618669 69.382844)"><ellipse fill="#fff" fill-opacity=".501961" cx="0" cy="0" rx="1" ry="1" /></g><g transform="translate(60.903757 109.844831) rotate(259.398137) scale(46.928492 71.902245)"><ellipse fill="#000" fill-opacity=".501961" cx="0" cy="0" rx="1" ry="1" /></g><ellipse fill="#fff" fill-opacity=".501961" cx="42" cy="30" rx="57" ry="42" /><g transform="translate(223.881061 26.860173) rotate(-44.074073) scale(64.283447 32.737850)"><ellipse fill="#000" fill-opacity=".501961" cx="0" cy="0" rx="1" ry="1" /></g><path fill="#fff" fill-opacity=".501961" d="M103 131l62 16-7 58z" /><g transform="translate(69.737063 248.427437) rotate(356.158014) scale(85.437332 19.688556)"><ellipse fill="#141414" fill-opacity=".501961" cx="0" cy="0" rx="1" ry="1" /></g><path fill="#000" fill-opacity=".501961" d="M105 145l45 58-64-18z" /><ellipse fill="#a7a7a7" fill-opacity=".501961" cx="244" cy="206" rx="56" ry="56" /></g></svg>