<svg xmlns="http://www.w3.org/2000/svg" viewBox="0 0 1080 1080"><filter id="b"><feGaussianBlur stdDeviation="12" /></filter><path d="M0 0h1080v1080H0z" fill="#666" /><g filter="url(#b)" transform="scale(4.218750) translate(0.5 0.5)"><g transform="translate(121.291273 54.750515) rotate(252.296619) scale(97.013093 76.957065)"><ellipse fill="#fff" fill-opacity=".501961" cx="0" cy="0" rx="1" ry="1" /></g><g transform="translate(105.688146 217.139850) rotate(94.318487) scale(63.773412 196.308288)"><ellipse fill="#000" fill-opacity=".501961" cx="0" cy="0" rx="1" ry="1" /></g><path fill="#fff" fill-opacity=".501961" d="M271 136 71-16 68 153z" /><g transform="translate(238.521676 40.618843) rotate(331.292213) scale(45.920184 69.381607)"><ellipse fill="#000" fill-opacity=".501961" cx="0" cy="0" rx="1" ry="1" /></g><g transform="translate(17.400813 66.212054) rotate(262.923121) scale(39.565100 43.647383)"><ellipse fill="#000" fill-opacity=".501961" cx="0" cy="0" rx="1" ry="1" /></g><ellipse fill="#000" fill-opacity=".501961" cx="97" cy="219" rx="211" ry="45" /><ellipse fill="#fff" fill-opacity=".501961" cx="74" cy="12" rx="113" ry="16" /><ellipse fill="#fff" fill-opacity=".501961" cx="48" cy="142" rx="77" ry="8" /></g></svg>