<svg xmlns="http://www.w3.org/2000/svg" viewBox="0 0 1080 1080"><filter id="b"><feGaussianBlur stdDeviation="12" /></filter><path d="M0 0h1080v1080H0z" fill="#676767" /><g filter="url(#b)" transform="scale(4.218750) translate(0.5 0.5)"><g transform="translate(84.062444 116.060431) rotate(240.095077) scale(38.288059 101.349992)"><ellipse fill="#fff" fill-opacity=".501961" cx="0" cy="0" rx="1" ry="1" /></g><g transform="translate(170.240592 211.613776) rotate(87.980410) scale(55.919233 201.653654)"><ellipse fill="#000" fill-opacity=".501961" cx="0" cy="0" rx="1" ry="1" /></g><ellipse fill="#c9c9c9" fill-opacity=".501961" cx="181" cy="47" rx="97" ry="97" /><ellipse fill="#000" fill-opacity=".501961" cx="170" cy="205" rx="195" ry="43" /><ellipse fill="#ebebeb" fill-opacity=".501961" cx="102" cy="86" rx="77" ry="30" /><g transform="translate(244.542541 138.245216) rotate(409.111170) scale(35.195747 15.281439)"><ellipse fill="#000" fill-opacity=".501961" cx="0" cy="0" rx="1" ry="1" /></g><g transform="translate(182.359193 39.309710) rotate(290.192421) scale(38.488011 52.968470)"><ellipse fill="#5f5f5f" fill-opacity=".501961" cx="0" cy="0" rx="1" ry="1" /></g><g transform="translate(114 21) rotate(276) scale(46 36)"><path d="M0 0h1080v1080H0z" fill="#fff" /></g></g></svg>