<svg xmlns="http://www.w3.org/2000/svg" viewBox="0 0 1080 1080"><filter id="b"><feGaussianBlur stdDeviation="12" /></filter><path d="M0 0h1080v1080H0z" fill="#979797" /><g filter="url(#b)" transform="scale(4.218750) translate(0.5 0.5)"><ellipse fill="#fff" fill-opacity=".501961" cx="138" cy="188" rx="88" ry="72" /><ellipse fill="#2e2e2e" fill-opacity=".501961" cx="192" cy="54" rx="79" ry="79" /><g transform="translate(31.633176 239.197930) rotate(156.478446) scale(39.699363 61.777452)"><ellipse fill="#000" fill-opacity=".501961" cx="0" cy="0" rx="1" ry="1" /></g><g transform="translate(230.055799 254.540414) rotate(212.103486) scale(27.853148 137.019315)"><ellipse fill="#000" fill-opacity=".501961" cx="0" cy="0" rx="1" ry="1" /></g><g transform="translate(54.113322 147.975326) rotate(-28.000855) scale(26.120172 195.980369)"><ellipse fill="#fff" fill-opacity=".501961" cx="0" cy="0" rx="1" ry="1" /></g><path fill="#3e3e3e" fill-opacity=".501961" d="M170 93l-45 76L30 82z" /><g transform="translate(178.502515 108.990534) rotate(200.384530) scale(17.883786 44.490591)"><ellipse fill="#fff" fill-opacity=".501961" cx="0" cy="0" rx="1" ry="1" /></g><g transform="translate(227.241903 140.381585) rotate(80.060507) scale(53.347654 13.247247)"><ellipse fill="#010101" fill-opacity=".501961" cx="0" cy="0" rx="1" ry="1" /></g></g></svg>