<svg xmlns="http://www.w3.org/2000/svg" viewBox="0 0 1080 1080"><filter id="b"><feGaussianBlur stdDeviation="12" /></filter><path d="M0 0h1080v1080H0z" fill="#ababab" /><g filter="url(#b)" transform="scale(4.218750) translate(0.5 0.5)"><g transform="translate(65.341003 2.604010) rotate(268.041821) scale(39.441342 98.748033)"><ellipse fill="#000" fill-opacity=".501961" cx="0" cy="0" rx="1" ry="1" /></g><g transform="translate(160.480823 136.246250) rotate(316.662234) scale(45.208420 37.655010)"><ellipse fill="#000" fill-opacity=".501961" cx="0" cy="0" rx="1" ry="1" /></g><g transform="translate(63.363375 148.631828) rotate(353.078493) scale(58.070416 115.858268)"><ellipse fill="#f3f3f3" fill-opacity=".501961" cx="0" cy="0" rx="1" ry="1" /></g><g transform="translate(214.828909 190.665620) rotate(-74.168578) scale(49.943680 44.093522)"><ellipse fill="#fefefe" fill-opacity=".501961" cx="0" cy="0" rx="1" ry="1" /></g><ellipse fill="#040404" fill-opacity=".501961" cx="150" cy="131" rx="35" ry="35" /><g transform="translate(255 20) rotate(-1) scale(41 43)"><path d="M0 0h1080v1080H0z" fill="#000" /></g><g transform="translate(68.989342 10.180778) rotate(274.449395) scale(19.777040 69.132665)"><ellipse fill="#000" fill-opacity=".501961" cx="0" cy="0" rx="1" ry="1" /></g><ellipse fill="#d9d9d9" fill-opacity=".501961" cx="116" cy="75" rx="255" ry="23" /></g></svg>