<svg xmlns="http://www.w3.org/2000/svg" viewBox="0 0 1080 1080"><filter id="b"><feGaussianBlur stdDeviation="12" /></filter><path d="M0 0h1080v1080H0z" fill="#9c9c9c" /><g filter="url(#b)" transform="scale(4.218750) translate(0.5 0.5)"><ellipse fill="#030303" fill-opacity=".501961" cx="148" cy="153" rx="60" ry="58" /><g transform="translate(20.008146 19.601745) rotate(187.354391) scale(49.391216 35.039236)"><ellipse fill="#000" fill-opacity=".501961" cx="0" cy="0" rx="1" ry="1" /></g><g transform="translate(123.162550 245.149843) rotate(96.352233) scale(39.099594 172.307878)"><ellipse fill="#fff" fill-opacity=".501961" cx="0" cy="0" rx="1" ry="1" /></g><g transform="translate(96.217652 44.130549) rotate(354.926271) scale(23.688292 95.651340)"><ellipse fill="#fff" fill-opacity=".501961" cx="0" cy="0" rx="1" ry="1" /></g><ellipse fill="#fff" fill-opacity=".501961" cx="166" cy="22" rx="29" ry="87" /><ellipse fill="#000" fill-opacity=".501961" cx="128" cy="48" rx="11" ry="74" /><g transform="translate(227.508710 10.446330) rotate(224.862530) scale(23.169956 42.965450)"><ellipse fill="#010101" fill-opacity=".501961" cx="0" cy="0" rx="1" ry="1" /></g><g transform="translate(62 194) rotate(350) scale(47 17)"><path d="M0 0h1080v1080H0z" fill="#000" /></g></g></svg>