<svg xmlns="http://www.w3.org/2000/svg" viewBox="0 0 1080 1080"><filter id="b"><feGaussianBlur stdDeviation="12" /></filter><path d="M0 0h1080v1080H0z" fill="#6a6a6a" /><g filter="url(#b)" transform="scale(4.218750) translate(0.5 0.5)"><ellipse fill="#fff" fill-opacity=".501961" cx="25" cy="32" rx="122" ry="44" /><ellipse fill="#000" fill-opacity=".501961" cx="54" cy="233" rx="78" ry="134" /><g transform="translate(255.000000 173.527144) rotate(209.645896) scale(31.460436 91.508119)"><ellipse fill="#dbdbdb" fill-opacity=".501961" cx="0" cy="0" rx="1" ry="1" /></g><g transform="translate(25.491403 41.945172) rotate(33.524713) scale(34.039989 67.546948)"><ellipse fill="#fff" fill-opacity=".501961" cx="0" cy="0" rx="1" ry="1" /></g><g transform="translate(105 105) rotate(70) scale(43 29)"><path d="M0 0h1080v1080H0z" fill="#fff" /></g><path d="M0 0h1080v1080H0z" fill="#242424" /><g transform="translate(147.785909 65.881301) rotate(75.613687) scale(37.245576 15.972239)"><ellipse fill="#f7f7f7" fill-opacity=".501961" cx="0" cy="0" rx="1" ry="1" /></g><g transform="translate(186.377301 213.238225) rotate(24.050764) scale(14.454013 51.920524)"><ellipse fill="#000" fill-opacity=".501961" cx="0" cy="0" rx="1" ry="1" /></g></g></svg>