<svg xmlns="http://www.w3.org/2000/svg" viewBox="0 0 1080 1080"><filter id="b"><feGaussianBlur stdDeviation="12" /></filter><path d="M0 0h1080v1080H0z" fill="#727272" /><g filter="url(#b)" transform="scale(4.218750) translate(0.5 0.5)"><g transform="translate(187.094983 255.000000) rotate(-3.150405) scale(128.466182 33.220237)"><ellipse fill="#fff" fill-opacity=".501961" cx="0" cy="0" rx="1" ry="1" /></g><ellipse fill="#000" fill-opacity=".501961" cx="71" cy="169" rx="70" ry="70" /><g transform="translate(8.399289 43.261444) rotate(110.486728) scale(138.890037 29.794582)"><ellipse fill="#fff" fill-opacity=".501961" cx="0" cy="0" rx="1" ry="1" /></g><ellipse fill="#dbdbdb" fill-opacity=".501961" cx="168" cy="76" rx="37" ry="62" /><g transform="translate(103.998079 0.000000) rotate(118.414740) scale(67.215429 39.809632)"><ellipse fill="#000" fill-opacity=".501961" cx="0" cy="0" rx="1" ry="1" /></g><path fill="#fff" fill-opacity=".501961" d="M23 172 1 19-16 161z" /><g transform="translate(158.785116 215.063025) rotate(78.557080) scale(51.354875 12.382468)"><ellipse fill="#fff" fill-opacity=".501961" cx="0" cy="0" rx="1" ry="1" /></g><ellipse fill="#fff" fill-opacity=".501961" cx="79" cy="74" rx="24" ry="15" /></g></svg>