<svg xmlns="http://www.w3.org/2000/svg" viewBox="0 0 1080 1080"><filter id="b"><feGaussianBlur stdDeviation="12" /></filter><path d="M0 0h1080v1080H0z" fill="#838383" /><g filter="url(#b)" transform="scale(4.218750) translate(0.5 0.5)"><g transform="translate(191.638077 57.963226) rotate(236.889702) scale(181.679732 65.215168)"><ellipse fill="#fff" fill-opacity=".501961" cx="0" cy="0" rx="1" ry="1" /></g><g transform="translate(120.840380 240.280389) rotate(370.659684) scale(142.387834 88.463511)"><ellipse fill="#111" fill-opacity=".501961" cx="0" cy="0" rx="1" ry="1" /></g><path fill="#000" fill-opacity=".501961" d="M28 89 70 54l134 92z" /><ellipse fill="#fbfbfb" fill-opacity=".501961" cx="126" cy="47" rx="43" ry="43" /><g transform="translate(169 156) rotate(175) scale(35 63)"><path d="M0 0h1080v1080H0z" fill="#000" /></g><g transform="translate(120.897142 140.012868) rotate(39.465863) scale(37.890354 16.216859)"><ellipse fill="#f0f0f0" fill-opacity=".501961" cx="0" cy="0" rx="1" ry="1" /></g><g transform="translate(13.722650 123.991689) rotate(97.318038) scale(59.563347 22.548048)"><ellipse fill="#303030" fill-opacity=".501961" cx="0" cy="0" rx="1" ry="1" /></g><g transform="translate(240.990952 123.080329) rotate(107.354776) scale(24.555890 115.915848)"><ellipse fill="#fff" fill-opacity=".501961" cx="0" cy="0" rx="1" ry="1" /></g></g></svg>