<svg xmlns="http://www.w3.org/2000/svg" viewBox="0 0 1080 1080"><filter id="b"><feGaussianBlur stdDeviation="12" /></filter><path d="M0 0h1080v1080H0z" fill="#6c6c6c" /><g filter="url(#b)" transform="scale(4.218750) translate(0.5 0.5)"><g transform="translate(151.011273 134.770238) rotate(276.902756) scale(67.008957 49.225453)"><ellipse fill="#000" fill-opacity=".501961" cx="0" cy="0" rx="1" ry="1" /></g><g transform="translate(93 70) rotate(126) scale(63 59)"><path d="M0 0h1080v1080H0z" fill="#fff" /></g><g transform="translate(120.700577 248.115714) rotate(247.381775) scale(33.454634 163.217193)"><ellipse fill="#d2d2d2" fill-opacity=".501961" cx="0" cy="0" rx="1" ry="1" /></g><g transform="translate(23.301799 89.197245) rotate(151.437541) scale(21.813644 54.577953)"><ellipse fill="#000" fill-opacity=".501961" cx="0" cy="0" rx="1" ry="1" /></g><path fill="#d2d2d2" fill-opacity=".501961" d="M271 169 167 110l87-60z" /><g transform="translate(24.463301 165.740425) rotate(225.204418) scale(9.130331 39.945474)"><ellipse fill="#fff" fill-opacity=".501961" cx="0" cy="0" rx="1" ry="1" /></g><ellipse fill="#fefefe" fill-opacity=".501961" cx="202" cy="0" rx="36" ry="21" /><ellipse fill="#282828" fill-opacity=".501961" cx="42" cy="8" rx="106" ry="32" /></g></svg>