<svg xmlns="http://www.w3.org/2000/svg" viewBox="0 0 1080 1088"><filter id="b"><feGaussianBlur stdDeviation="12" /></filter><path d="M0 0h1080v1088H0z" fill="#a9a9a9" /><g filter="url(#b)" transform="scale(4.250000) translate(0.5 0.5)"><g transform="translate(234.255350 20.127637) rotate(91.674710) scale(79.542374 23.535739)"><ellipse fill="#000" fill-opacity=".501961" cx="0" cy="0" rx="1" ry="1" /></g><g transform="translate(139.953514 184.962988) rotate(84.854439) scale(24.802245 47.823380)"><ellipse fill="#000" fill-opacity=".501961" cx="0" cy="0" rx="1" ry="1" /></g><g transform="translate(49.808150 128.026271) rotate(378.954659) scale(52.315327 70.935615)"><ellipse fill="#fff" fill-opacity=".501961" cx="0" cy="0" rx="1" ry="1" /></g><ellipse fill="#000" fill-opacity=".501961" cx="141" cy="0" rx="10" ry="65" /><g transform="translate(62.212406 62.850457) rotate(267.345444) scale(141.882757 19.446507)"><ellipse fill="#fff" fill-opacity=".501961" cx="0" cy="0" rx="1" ry="1" /></g><ellipse fill="#000" fill-opacity=".501961" cx="161" cy="165" rx="18" ry="29" /><g transform="translate(193.104020 122.246168) rotate(-22.552128) scale(27.609754 93.984237)"><ellipse fill="#f4f4f4" fill-opacity=".501961" cx="0" cy="0" rx="1" ry="1" /></g><ellipse fill="#000" fill-opacity=".501961" cx="241" cy="36" rx="32" ry="32" /></g></svg>