<svg xmlns="http://www.w3.org/2000/svg" viewBox="0 0 1080 1080"><filter id="b"><feGaussianBlur stdDeviation="12" /></filter><path d="M0 0h1080v1080H0z" fill="#6c6c6c" /><g filter="url(#b)" transform="scale(4.218750) translate(0.5 0.5)"><ellipse fill="#fff" fill-opacity=".501961" cx="57" cy="32" rx="46" ry="59" /><g transform="translate(199.925792 44.479274) rotate(153.199733) scale(41.335240 56.832602)"><ellipse fill="#fff" fill-opacity=".501961" cx="0" cy="0" rx="1" ry="1" /></g><g transform="translate(137.627744 170.921821) rotate(240.783361) scale(61.503007 87.433561)"><ellipse fill="#000" fill-opacity=".501961" cx="0" cy="0" rx="1" ry="1" /></g><g transform="translate(131.503895 21.679484) rotate(166.783601) scale(26.202752 62.796028)"><ellipse fill="#000" fill-opacity=".501961" cx="0" cy="0" rx="1" ry="1" /></g><ellipse fill="#fff" fill-opacity=".501961" cx="108" cy="89" rx="22" ry="30" /><g transform="translate(63.966160 129.882448) rotate(117.445610) scale(50.336905 20.821817)"><ellipse fill="#050505" fill-opacity=".501961" cx="0" cy="0" rx="1" ry="1" /></g><g transform="translate(188.716493 57.138592) rotate(51.537096) scale(23.181532 41.267602)"><ellipse fill="#fff" fill-opacity=".501961" cx="0" cy="0" rx="1" ry="1" /></g><path fill="#ebebeb" fill-opacity=".501961" d="M107.481394-.517695 29.34065 12.782237 17.099941 71.995014 21.65999 127.161037z" /></g></svg>