<svg xmlns="http://www.w3.org/2000/svg" viewBox="0 0 1080 1080"><filter id="b"><feGaussianBlur stdDeviation="12" /></filter><path d="M0 0h1080v1080H0z" fill="#7e7e7e" /><g filter="url(#b)" transform="scale(4.218750) translate(0.5 0.5)"><ellipse fill="#dedede" fill-opacity=".501961" cx="60" cy="255" rx="117" ry="117" /><ellipse fill="#000" fill-opacity=".501961" cx="185" cy="126" rx="117" ry="26" /><g transform="translate(32.192499 80.627450) rotate(205.943651) scale(35.118543 56.972715)"><ellipse fill="#000" fill-opacity=".501961" cx="0" cy="0" rx="1" ry="1" /></g><ellipse fill="#000" fill-opacity=".501961" cx="72" cy="183" rx="13" ry="51" /><ellipse fill="#fff" fill-opacity=".501961" cx="141" cy="72" rx="19" ry="33" /><g transform="translate(218 0) rotate(10) scale(144 54)"><path d="M0 0h1080v1080H0z" fill="#000" /></g><g transform="translate(206.332905 100.398867) rotate(69.344953) scale(18.368348 152.635795)"><ellipse fill="#020202" fill-opacity=".501961" cx="0" cy="0" rx="1" ry="1" /></g><g transform="translate(191.995561 230.889745) rotate(44.696499) scale(44.175071 72.004376)"><ellipse fill="#e3e3e3" fill-opacity=".501961" cx="0" cy="0" rx="1" ry="1" /></g></g></svg>