<svg xmlns="http://www.w3.org/2000/svg" viewBox="0 0 1080 1080"><filter id="b"><feGaussianBlur stdDeviation="12" /></filter><path d="M0 0h1080v1080H0z" fill="#848484" /><g filter="url(#b)" transform="scale(4.218750) translate(0.5 0.5)"><g transform="translate(125.753197 135.124742) rotate(208.679997) scale(42.276045 93.326478)"><ellipse fill="#000" fill-opacity=".501961" cx="0" cy="0" rx="1" ry="1" /></g><ellipse fill="#000" fill-opacity=".501961" cx="61" cy="17" rx="114" ry="33" /><g transform="translate(184.974737 207.628464) rotate(-47.081713) scale(255.000000 44.385046)"><ellipse fill="#fff" fill-opacity=".501961" cx="0" cy="0" rx="1" ry="1" /></g><path fill="#fff" fill-opacity=".501961" d="M115 27-16 157 22 271z" /><g transform="translate(31.227218 57.030498) rotate(246.655959) scale(61.370044 22.773911)"><ellipse fill="#040404" fill-opacity=".501961" cx="0" cy="0" rx="1" ry="1" /></g><ellipse fill="#fff" fill-opacity=".501961" cx="98" cy="68" rx="35" ry="26" /><g transform="translate(134.241136 28.044801) rotate(-31.244023) scale(28.687427 39.570213)"><ellipse fill="#000" fill-opacity=".501961" cx="0" cy="0" rx="1" ry="1" /></g><g transform="translate(30.537217 198.539129) rotate(-30.988896) scale(36.125350 114.285974)"><ellipse fill="#e2e2e2" fill-opacity=".501961" cx="0" cy="0" rx="1" ry="1" /></g></g></svg>