<svg xmlns="http://www.w3.org/2000/svg" viewBox="0 0 1080 1080"><filter id="b"><feGaussianBlur stdDeviation="12" /></filter><path d="M0 0h1080v1080H0z" fill="#8c8c8c" /><g filter="url(#b)" transform="scale(4.218750) translate(0.5 0.5)"><g transform="translate(66.294243 227.464009) rotate(116.503230) scale(25.335697 94.818031)"><ellipse fill="#000" fill-opacity=".501961" cx="0" cy="0" rx="1" ry="1" /></g><ellipse fill="#fff" fill-opacity=".501961" cx="244" cy="193" rx="103" ry="103" /><ellipse fill="#000" fill-opacity=".501961" cx="228" cy="32" rx="86" ry="39" /><g transform="translate(80.244468 22.572839) rotate(221.496345) scale(25.829002 47.319767)"><ellipse fill="#fff" fill-opacity=".501961" cx="0" cy="0" rx="1" ry="1" /></g><ellipse fill="#333" fill-opacity=".501961" cx="92" cy="86" rx="61" ry="29" /><g transform="translate(1.590275 71.730452) rotate(75.313986) scale(97.718191 25.918753)"><ellipse fill="#ebebeb" fill-opacity=".501961" cx="0" cy="0" rx="1" ry="1" /></g><g transform="translate(44.980511 222.830903) rotate(216.421415) scale(147.955117 17.581066)"><ellipse fill="#000" fill-opacity=".501961" cx="0" cy="0" rx="1" ry="1" /></g><g transform="translate(233 44) rotate(122) scale(34 160)"><path d="M0 0h1080v1080H0z" fill="#000" /></g></g></svg>