<svg xmlns="http://www.w3.org/2000/svg" viewBox="0 0 1080 1080"><filter id="b"><feGaussianBlur stdDeviation="12" /></filter><path d="M0 0h1080v1080H0z" fill="#727272" /><g filter="url(#b)" transform="scale(4.218750) translate(0.5 0.5)"><g transform="translate(227.042768 27.248631) rotate(127.334588) scale(94.206925 27.758689)"><ellipse fill="#eaeaea" fill-opacity=".501961" cx="0" cy="0" rx="1" ry="1" /></g><g transform="translate(72.194691 9.725974) rotate(56.029362) scale(47.780772 31.353367)"><ellipse fill="#fbfbfb" fill-opacity=".501961" cx="0" cy="0" rx="1" ry="1" /></g><g transform="translate(76.889033 96.617180) rotate(21.560512) scale(146.397602 32.403605)"><ellipse fill="#2d2d2d" fill-opacity=".501961" cx="0" cy="0" rx="1" ry="1" /></g><g transform="translate(90.723880 165.457997) rotate(146.841192) scale(52.218555 35.657839)"><ellipse fill="#bdbdbd" fill-opacity=".501961" cx="0" cy="0" rx="1" ry="1" /></g><ellipse fill="#474747" fill-opacity=".501961" cx="195" cy="255" rx="110" ry="110" /><g transform="translate(137 79) rotate(47) scale(64 32)"><path d="M0 0h1080v1080H0z" fill="#111" /></g><g transform="translate(34.736167 235.832690) rotate(59.182384) scale(15.461035 56.749626)"><ellipse fill="#bababa" fill-opacity=".501961" cx="0" cy="0" rx="1" ry="1" /></g><g transform="translate(16.806702 139.255504) rotate(240.253636) scale(26.575321 14.801402)"><ellipse fill="#131313" fill-opacity=".501961" cx="0" cy="0" rx="1" ry="1" /></g></g></svg>