<svg xmlns="http://www.w3.org/2000/svg" viewBox="0 0 1080 1080"><filter id="b"><feGaussianBlur stdDeviation="12" /></filter><path d="M0 0h1080v1080H0z" fill="#7a7a7a" /><g filter="url(#b)" transform="scale(4.218750) translate(0.5 0.5)"><g transform="translate(243.072941 205.103668) rotate(7.263529) scale(49.094661 130.179793)"><ellipse fill="#fff" fill-opacity=".501961" cx="0" cy="0" rx="1" ry="1" /></g><g transform="translate(0.000000 84.359986) rotate(3.806294) scale(46.400420 126.993152)"><ellipse fill="#080808" fill-opacity=".501961" cx="0" cy="0" rx="1" ry="1" /></g><ellipse fill="#1d1d1d" fill-opacity=".501961" cx="139" cy="179" rx="44" ry="44" /><g transform="translate(183.206082 115.077382) rotate(167.258169) scale(26.558660 58.266820)"><ellipse fill="#141414" fill-opacity=".501961" cx="0" cy="0" rx="1" ry="1" /></g><g transform="translate(66 209) rotate(188) scale(79 44)"><path d="M0 0h1080v1080H0z" fill="#f2f2f2" /></g><g transform="translate(176.579649 245.447367) rotate(339.553521) scale(14.320401 51.507403)"><ellipse fill="#000" fill-opacity=".501961" cx="0" cy="0" rx="1" ry="1" /></g><ellipse fill="#000" fill-opacity=".501961" cx="122" cy="94" rx="20" ry="28" /><ellipse fill="#fafafa" fill-opacity=".501961" cx="60" cy="136" rx="38" ry="11" /></g></svg>