<svg xmlns="http://www.w3.org/2000/svg" viewBox="0 0 1440 1440"><filter id="b"><feGaussianBlur stdDeviation="12" /></filter><path d="M0 0h1440v1440H0z" fill="#959595" /><g filter="url(#b)" transform="scale(5.625000) translate(0.5 0.5)"><g transform="translate(129.091646 145.437167) rotate(22.407204) scale(79.137976 61.074936)"><ellipse fill="#000" fill-opacity=".501961" cx="0" cy="0" rx="1" ry="1" /></g><g transform="translate(37.941400 65.574983) rotate(136.188156) scale(96.738658 43.042645)"><ellipse fill="#fff" fill-opacity=".501961" cx="0" cy="0" rx="1" ry="1" /></g><g transform="translate(162.430357 231.839207) rotate(177.968725) scale(255.000000 25.890319)"><ellipse fill="#fff" fill-opacity=".501961" cx="0" cy="0" rx="1" ry="1" /></g><g transform="translate(10.186942 194.129602) rotate(142.078568) scale(55.257627 35.741479)"><ellipse fill="#fff" fill-opacity=".501961" cx="0" cy="0" rx="1" ry="1" /></g><g transform="translate(66.000629 202.955986) rotate(135.267556) scale(32.716939 13.476054)"><ellipse fill="#000" fill-opacity=".501961" cx="0" cy="0" rx="1" ry="1" /></g><ellipse fill="#000" fill-opacity=".501961" cx="127" cy="33" rx="20" ry="20" /><ellipse fill="#424242" fill-opacity=".501961" cx="233" cy="25" rx="51" ry="112" /><ellipse fill="#fff" fill-opacity=".501961" cx="246" cy="184" rx="38" ry="52" /></g></svg>