<svg xmlns="http://www.w3.org/2000/svg" viewBox="0 0 1080 1080"><filter id="b"><feGaussianBlur stdDeviation="12" /></filter><path d="M0 0h1080v1080H0z" fill="#414141" /><g filter="url(#b)" transform="scale(4.218750) translate(0.5 0.5)"><g transform="translate(23.577527 60.198409) rotate(416.316187) scale(75.304100 40.242191)"><ellipse fill="#fff" fill-opacity=".501961" cx="0" cy="0" rx="1" ry="1" /></g><g transform="translate(95.474924 161.337268) rotate(283.607732) scale(97.271841 12.683082)"><ellipse fill="#fff" fill-opacity=".501961" cx="0" cy="0" rx="1" ry="1" /></g><g transform="translate(161.321640 28.790414) rotate(-66.430912) scale(68.633194 151.506523)"><ellipse fill="#000" fill-opacity=".501961" cx="0" cy="0" rx="1" ry="1" /></g><g transform="translate(233.941427 146.215912) rotate(120.027287) scale(22.278295 48.523265)"><ellipse fill="#eaeaea" fill-opacity=".501961" cx="0" cy="0" rx="1" ry="1" /></g><g transform="translate(211.045082 206.752924) rotate(389.201488) scale(91.797574 38.443569)"><ellipse fill="#020202" fill-opacity=".501961" cx="0" cy="0" rx="1" ry="1" /></g><g transform="translate(160.878644 80.992351) rotate(221.587011) scale(31.191715 60.631453)"><ellipse fill="#000" fill-opacity=".501961" cx="0" cy="0" rx="1" ry="1" /></g><path fill="#dbdbdb" fill-opacity=".501961" d="M87 83 67 38-16 106z" /><g transform="translate(86.644947 185.910451) rotate(194.222988) scale(9.847299 58.695301)"><ellipse fill="#fefefe" fill-opacity=".501961" cx="0" cy="0" rx="1" ry="1" /></g></g></svg>