<svg xmlns="http://www.w3.org/2000/svg" viewBox="0 0 1440 1440"><filter id="b"><feGaussianBlur stdDeviation="12" /></filter><path d="M0 0h1440v1440H0z" fill="#9e9e9e" /><g filter="url(#b)" transform="scale(5.625000) translate(0.5 0.5)"><g transform="translate(113.236751 125.020285) rotate(182.022284) scale(79.979723 48.425214)"><ellipse fill="#030303" fill-opacity=".501961" cx="0" cy="0" rx="1" ry="1" /></g><g transform="translate(138.123113 213.912615) rotate(339.518386) scale(159.058731 31.697864)"><ellipse fill="#f9f9f9" fill-opacity=".501961" cx="0" cy="0" rx="1" ry="1" /></g><ellipse fill="#fff" fill-opacity=".501961" cx="26" cy="33" rx="44" ry="44" /><g transform="translate(17.958589 137.548548) rotate(246.807519) scale(36.044129 15.702883)"><ellipse fill="#fff" fill-opacity=".501961" cx="0" cy="0" rx="1" ry="1" /></g><ellipse fill="#272727" fill-opacity=".501961" cx="36" cy="175" rx="57" ry="14" /><path fill="#303030" fill-opacity=".501961" d="M138 137 257 77l-50 88z" /><ellipse fill="#fff" fill-opacity=".501961" cx="100" cy="1" rx="81" ry="19" /><g transform="translate(224 23) rotate(98) scale(41 26)"><path d="M0 0h1440v1440H0z" fill="#fff" /></g></g></svg>