<svg xmlns="http://www.w3.org/2000/svg" viewBox="0 0 1440 1440"><filter id="b"><feGaussianBlur stdDeviation="12" /></filter><path d="M0 0h1440v1440H0z" fill="#7e7e7e" /><g filter="url(#b)" transform="scale(5.625000) translate(0.5 0.5)"><path fill="#fff" fill-opacity=".501961" d="M2-16 179 20-16 194z" /><g transform="translate(181.159907 165.786397) rotate(134.167708) scale(50.417117 102.351206)"><ellipse fill="#000" fill-opacity=".501961" cx="0" cy="0" rx="1" ry="1" /></g><g transform="translate(220 75) rotate(418) scale(52 85)"><path d="M0 0h1440v1440H0z" fill="#fff" /></g><ellipse fill="#4a4a4a" fill-opacity=".501961" cx="57" cy="230" rx="234" ry="75" /><g transform="translate(162.822901 137.993501) rotate(17.275103) scale(43.931779 43.381862)"><ellipse fill="#000" fill-opacity=".501961" cx="0" cy="0" rx="1" ry="1" /></g><path fill="#cfcfcf" fill-opacity=".501961" d="M153-16 62 193-16 37z" /><g transform="translate(179.325444 24.195499) rotate(148.425346) scale(21.356031 33.094053)"><ellipse fill="#343434" fill-opacity=".501961" cx="0" cy="0" rx="1" ry="1" /></g><g transform="translate(177.661788 71.823213) rotate(114.814034) scale(10.271136 72.497737)"><ellipse fill="#f8f8f8" fill-opacity=".501961" cx="0" cy="0" rx="1" ry="1" /></g></g></svg>