<svg xmlns="http://www.w3.org/2000/svg" viewBox="0 0 1440 1440"><filter id="b"><feGaussianBlur stdDeviation="12" /></filter><path d="M0 0h1440v1440H0z" fill="#8b8b8b" /><g filter="url(#b)" transform="scale(5.625000) translate(0.5 0.5)"><g transform="translate(66.385070 142.828023) rotate(289.653629) scale(92.835334 59.271094)"><ellipse fill="#000" fill-opacity=".501961" cx="0" cy="0" rx="1" ry="1" /></g><g transform="translate(210.958301 122.627931) rotate(30.718182) scale(82.640395 53.043869)"><ellipse fill="#fff" fill-opacity=".501961" cx="0" cy="0" rx="1" ry="1" /></g><ellipse fill="#fcfcfc" fill-opacity=".501961" cx="153" cy="239" rx="102" ry="40" /><g transform="translate(25.733157 16.264442) rotate(198.952523) scale(85.508204 33.635815)"><ellipse fill="#fff" fill-opacity=".501961" cx="0" cy="0" rx="1" ry="1" /></g><g transform="translate(116.838046 175.120570) rotate(240.265221) scale(27.926774 36.363354)"><ellipse fill="#000" fill-opacity=".501961" cx="0" cy="0" rx="1" ry="1" /></g><g transform="translate(245.165733 0.000000) rotate(209.742493) scale(161.377175 39.697885)"><ellipse fill="#161616" fill-opacity=".501961" cx="0" cy="0" rx="1" ry="1" /></g><g transform="translate(40 244) rotate(268) scale(64 26)"><path d="M0 0h1440v1440H0z" fill="#000" /></g><ellipse fill="#0d0d0d" fill-opacity=".501961" cx="47" cy="118" rx="46" ry="46" /></g></svg>