<svg xmlns="http://www.w3.org/2000/svg" viewBox="0 0 1080 1080"><filter id="b"><feGaussianBlur stdDeviation="12" /></filter><path d="M0 0h1080v1080H0z" fill="#3e3e3e" /><g filter="url(#b)" transform="scale(4.218750) translate(0.5 0.5)"><g transform="translate(36.091297 70.494148) rotate(152.578534) scale(33.128295 142.108714)"><ellipse fill="#fff" fill-opacity=".501961" cx="0" cy="0" rx="1" ry="1" /></g><g transform="translate(35 144) rotate(-13) scale(56 91)"><path d="M0 0h1080v1080H0z" fill="#000" /></g><g transform="translate(22.745710 63.768437) rotate(259.225181) scale(32.484164 59.010728)"><ellipse fill="#fff" fill-opacity=".501961" cx="0" cy="0" rx="1" ry="1" /></g><g transform="translate(143.395504 83.982614) rotate(-2.548071) scale(58.259933 124.646878)"><ellipse fill="#000" fill-opacity=".501961" cx="0" cy="0" rx="1" ry="1" /></g><g transform="translate(77 132) rotate(170) scale(31 114)"><path d="M0 0h1080v1080H0z" fill="#fff" /></g><g transform="translate(54.924190 240.213042) rotate(20.828716) scale(129.034333 31.947108)"><ellipse fill="#000" fill-opacity=".501961" cx="0" cy="0" rx="1" ry="1" /></g><g transform="translate(166.640445 254.403264) rotate(244.528582) scale(31.394177 14.772559)"><ellipse fill="#f3f3f3" fill-opacity=".501961" cx="0" cy="0" rx="1" ry="1" /></g><g transform="translate(19.595170 31.793791) rotate(184.456898) scale(19.852176 67.473779)"><ellipse fill="#fff" fill-opacity=".501961" cx="0" cy="0" rx="1" ry="1" /></g></g></svg>