<svg xmlns="http://www.w3.org/2000/svg" viewBox="0 0 1440 1440"><filter id="b"><feGaussianBlur stdDeviation="12" /></filter><path d="M0 0h1440v1440H0z" fill="#6d6d6d" /><g filter="url(#b)" transform="scale(5.625000) translate(0.5 0.5)"><g transform="translate(183.432127 50.584165) rotate(499.839120) scale(37.659548 49.210001)"><ellipse fill="#fff" fill-opacity=".501961" cx="0" cy="0" rx="1" ry="1" /></g><ellipse fill="#f0f0f0" fill-opacity=".501961" cx="53" cy="67" rx="63" ry="63" /><ellipse fill="#202020" fill-opacity=".501961" cx="155" cy="186" rx="92" ry="92" /><g transform="translate(61.220912 107.446115) rotate(168.649772) scale(13.754838 64.952227)"><ellipse fill="#000" fill-opacity=".501961" cx="0" cy="0" rx="1" ry="1" /></g><ellipse fill="#fff" fill-opacity=".501961" cx="141" cy="171" rx="44" ry="10" /><g transform="translate(248.909270 55.933007) rotate(266.400759) scale(69.371750 23.281488)"><ellipse fill="#000" fill-opacity=".501961" cx="0" cy="0" rx="1" ry="1" /></g><ellipse fill="#b0b0b0" fill-opacity=".501961" cx="149" cy="230" rx="42" ry="31" /><g transform="translate(139.770291 122.438751) rotate(34.253406) scale(31.123587 51.600548)"><ellipse fill="#000" fill-opacity=".501961" cx="0" cy="0" rx="1" ry="1" /></g></g></svg>