<svg xmlns="http://www.w3.org/2000/svg" viewBox="0 0 1080 1080"><filter id="b"><feGaussianBlur stdDeviation="12" /></filter><path d="M0 0h1080v1080H0z" fill="#7f7f7f" /><g filter="url(#b)" transform="scale(4.218750) translate(0.5 0.5)"><g transform="translate(30.993448 159.647148) rotate(341.208714) scale(73.690529 48.223400)"><ellipse fill="#000" fill-opacity=".501961" cx="0" cy="0" rx="1" ry="1" /></g><g transform="translate(146.328155 30.390060) rotate(299.314944) scale(52.131195 223.174626)"><ellipse fill="#d4d4d4" fill-opacity=".501961" cx="0" cy="0" rx="1" ry="1" /></g><ellipse fill="#000" fill-opacity=".501961" cx="178" cy="164" rx="24" ry="61" /><g transform="translate(30.411108 62.142886) rotate(174.368852) scale(19.104874 50.089515)"><ellipse fill="#fff" fill-opacity=".501961" cx="0" cy="0" rx="1" ry="1" /></g><g transform="translate(83.354374 90.878775) rotate(162.818072) scale(30.077771 51.468604)"><ellipse fill="#030303" fill-opacity=".501961" cx="0" cy="0" rx="1" ry="1" /></g><g transform="translate(254.633855 112.973894) rotate(4.229802) scale(20.234545 210.478755)"><ellipse fill="#fff" fill-opacity=".501961" cx="0" cy="0" rx="1" ry="1" /></g><ellipse fill="#000" fill-opacity=".501961" cx="231" cy="65" rx="7" ry="76" /><g transform="translate(121.885120 132.618517) rotate(279.054441) scale(59.151956 14.121237)"><ellipse fill="#fff" fill-opacity=".501961" cx="0" cy="0" rx="1" ry="1" /></g></g></svg>