<svg xmlns="http://www.w3.org/2000/svg" viewBox="0 0 1080 1080"><filter id="b"><feGaussianBlur stdDeviation="12" /></filter><path d="M0 0h1080v1080H0z" fill="gray" /><g filter="url(#b)" transform="scale(4.218750) translate(0.5 0.5)"><ellipse fill="#181818" fill-opacity=".501961" cx="77" cy="204" rx="84" ry="84" /><ellipse fill="#fff" fill-opacity=".501961" cx="33" cy="0" rx="56" ry="145" /><g transform="translate(195.857527 19.808793) rotate(121.633147) scale(48.254597 78.086836)"><ellipse fill="#f3f3f3" fill-opacity=".501961" cx="0" cy="0" rx="1" ry="1" /></g><g transform="translate(142.282456 179.950819) rotate(247.726636) scale(27.926919 142.757643)"><ellipse fill="#202020" fill-opacity=".501961" cx="0" cy="0" rx="1" ry="1" /></g><g transform="translate(217.450252 233.029232) rotate(335.671211) scale(186.766836 36.017549)"><ellipse fill="#dfdfdf" fill-opacity=".501961" cx="0" cy="0" rx="1" ry="1" /></g><g transform="translate(97 68) rotate(250) scale(82 29)"><path d="M0 0h1080v1080H0z" fill="#202020" /></g><g transform="translate(20.673917 24.184393) rotate(255.556368) scale(14.646445 165.652544)"><ellipse fill="#fff" fill-opacity=".501961" cx="0" cy="0" rx="1" ry="1" /></g><ellipse fill="#3b3b3b" fill-opacity=".501961" cx="151" cy="127" rx="36" ry="53" /></g></svg>