<svg xmlns="http://www.w3.org/2000/svg" viewBox="0 0 1440 1440"><filter id="b"><feGaussianBlur stdDeviation="12" /></filter><path d="M0 0h1440v1440H0z" fill="#9e9e9e" /><g filter="url(#b)" transform="scale(5.625000) translate(0.5 0.5)"><ellipse fill="#050505" fill-opacity=".501961" cx="220" cy="139" rx="84" ry="63" /><g transform="translate(167.499058 240.817701) rotate(81.277717) scale(31.039049 218.823504)"><ellipse fill="#fff" fill-opacity=".501961" cx="0" cy="0" rx="1" ry="1" /></g><ellipse fill="#131313" fill-opacity=".501961" cx="66" cy="154" rx="18" ry="80" /><g transform="translate(170.800000 4.532180) rotate(263.530027) scale(67.851266 167.282826)"><ellipse fill="#e5e5e5" fill-opacity=".501961" cx="0" cy="0" rx="1" ry="1" /></g><g transform="translate(152.861761 215.889017) rotate(64.637000) scale(12.086090 21.873307)"><ellipse fill="#202020" fill-opacity=".501961" cx="0" cy="0" rx="1" ry="1" /></g><g transform="translate(101.565339 231.991636) rotate(222.975813) scale(17.004700 66.684852)"><ellipse fill="#fff" fill-opacity=".501961" cx="0" cy="0" rx="1" ry="1" /></g><path fill="#ececec" fill-opacity=".501961" d="M-6 248 32 80l8 191z" /><g transform="translate(183.426444 84.903510) rotate(319.157875) scale(33.897896 58.473477)"><ellipse fill="#8a8a8a" fill-opacity=".501961" cx="0" cy="0" rx="1" ry="1" /></g></g></svg>