<svg xmlns="http://www.w3.org/2000/svg" viewBox="0 0 1440 1080"><filter id="b"><feGaussianBlur stdDeviation="12" /></filter><path d="M0 0h1440v1080H0z" fill="#55a8b9" /><g filter="url(#b)" transform="scale(5.625000) translate(0.5 0.5)"><g transform="translate(152.196847 154.613147) rotate(268.517365) scale(42.513588 255.000000)"><ellipse fill="#423d0b" fill-opacity=".501961" cx="0" cy="0" rx="1" ry="1" /></g><g transform="translate(180.333789 67.284291) rotate(178.486817) scale(241.793583 39.844821)"><ellipse fill="#a8ffff" fill-opacity=".501961" cx="0" cy="0" rx="1" ry="1" /></g><g transform="translate(113.392784 19.352395) rotate(85.931749) scale(31.595897 255.000000)"><ellipse fill="#00c8ff" fill-opacity=".501961" cx="0" cy="0" rx="1" ry="1" /></g><g transform="translate(237.417625 150.401520) rotate(290.161683) scale(22.558926 62.243163)"><ellipse fill="#004200" fill-opacity=".501961" cx="0" cy="0" rx="1" ry="1" /></g><path fill="#9396b8" fill-opacity=".501961" d="M125 112 46 178l171-4z" /><ellipse fill="#1a5300" fill-opacity=".501961" cx="1" cy="144" rx="52" ry="33" /><g transform="translate(178.288783 82.567780) rotate(89.018621) scale(18.270957 211.374806)"><ellipse fill="#c3f5ff" fill-opacity=".501961" cx="0" cy="0" rx="1" ry="1" /></g><g transform="translate(81.750600 12.882931) rotate(175.818548) scale(227.000086 21.329186)"><ellipse fill="#00b8ff" fill-opacity=".501961" cx="0" cy="0" rx="1" ry="1" /></g></g></svg>