<svg xmlns="http://www.w3.org/2000/svg" viewBox="0 0 1440 1440"><filter id="b"><feGaussianBlur stdDeviation="12" /></filter><path d="M0 0h1440v1440H0z" fill="#5a872d" /><g filter="url(#b)" transform="scale(5.625000) translate(0.5 0.5)"><g transform="translate(117.761120 0.000000) rotate(274.357576) scale(25.287120 222.517881)"><ellipse fill="#fff" fill-opacity=".501961" cx="0" cy="0" rx="1" ry="1" /></g><g transform="translate(106.374892 0.000000) rotate(274.590677) scale(21.912448 216.854343)"><ellipse fill="#fff" fill-opacity=".501961" cx="0" cy="0" rx="1" ry="1" /></g><g transform="translate(114.305314 210.357360) rotate(365.037307) scale(248.062209 91.756003)"><ellipse fill="#224d03" fill-opacity=".501961" cx="0" cy="0" rx="1" ry="1" /></g><g transform="translate(177.289119 8.208002) rotate(1.721522) scale(207.509109 16.484247)"><ellipse fill="#fff" fill-opacity=".501961" cx="0" cy="0" rx="1" ry="1" /></g><g transform="translate(152.925602 49.642949) rotate(183.489975) scale(153.698793 24.391877)"><ellipse fill="#77b912" fill-opacity=".501961" cx="0" cy="0" rx="1" ry="1" /></g><g transform="translate(158.884381 119.802056) rotate(96.933715) scale(56.335122 204.801607)"><ellipse fill="#498a0c" fill-opacity=".501961" cx="0" cy="0" rx="1" ry="1" /></g><ellipse fill="#2d441b" fill-opacity=".501961" cx="45" cy="232" rx="134" ry="25" /><ellipse fill="#fff" fill-opacity=".501961" cx="236" cy="2" rx="176" ry="26" /></g></svg>