<svg xmlns="http://www.w3.org/2000/svg" viewBox="0 0 1440 1440"><filter id="b"><feGaussianBlur stdDeviation="12" /></filter><path d="M0 0h1440v1440H0z" fill="#828183" /><g filter="url(#b)" transform="scale(5.625000) translate(0.5 0.5)"><g transform="translate(206.056738 130.344574) rotate(99.572354) scale(65.388899 175.120150)"><ellipse fill="#fff" fill-opacity=".501961" cx="0" cy="0" rx="1" ry="1" /></g><ellipse fill="#000" fill-opacity=".501961" cx="119" cy="28" rx="255" ry="34" /><g transform="translate(45.549538 217.289350) rotate(3.955571) scale(164.526182 23.961034)"><ellipse fill="#000" fill-opacity=".501961" cx="0" cy="0" rx="1" ry="1" /></g><path fill="#000" fill-opacity=".501961" d="M155 226l34-66-19-23z" /><g transform="translate(216.737641 164.274143) rotate(254.802510) scale(111.486831 29.543595)"><ellipse fill="#e9e7eb" fill-opacity=".501961" cx="0" cy="0" rx="1" ry="1" /></g><ellipse fill="#efeff2" fill-opacity=".501961" cx="181" cy="101" rx="118" ry="39" /><g transform="translate(46.660229 198.567234) rotate(14.846951) scale(92.242862 19.627666)"><ellipse fill="#242425" fill-opacity=".501961" cx="0" cy="0" rx="1" ry="1" /></g><g transform="translate(104.128445 243.177087) rotate(196.108807) scale(62.768762 15.955040)"><ellipse fill="#9f9da4" fill-opacity=".501961" cx="0" cy="0" rx="1" ry="1" /></g></g></svg>