<svg xmlns="http://www.w3.org/2000/svg" viewBox="0 0 1440 1440"><filter id="b"><feGaussianBlur stdDeviation="12" /></filter><path d="M0 0h1440v1440H0z" fill="#7f7d7c" /><g filter="url(#b)" transform="scale(5.625000) translate(0.5 0.5)"><ellipse fill="#e1dfde" fill-opacity=".501961" cx="84" cy="227" rx="100" ry="100" /><g transform="translate(222.392890 225.723609) rotate(95.180097) scale(92.701034 29.759282)"><ellipse fill="#000" fill-opacity=".501961" cx="0" cy="0" rx="1" ry="1" /></g><g transform="translate(229.799928 21.651727) rotate(63.184589) scale(40.457706 71.690585)"><ellipse fill="#000" fill-opacity=".501961" cx="0" cy="0" rx="1" ry="1" /></g><ellipse fill="#252425" fill-opacity=".501961" cx="40" cy="21" rx="79" ry="60" /><g transform="translate(252.126880 91.740220) rotate(286.728147) scale(28.387719 62.413493)"><ellipse fill="#fbfbfa" fill-opacity=".501961" cx="0" cy="0" rx="1" ry="1" /></g><path fill="#cfcecd" fill-opacity=".501961" d="M178 64l-76 65L31 38z" /><path fill="#000" fill-opacity=".501961" d="M43 141 14 98-11 142z" /><path d="M0 0h1440v1440H0z" fill="#030203" /></g></svg>