<svg xmlns="http://www.w3.org/2000/svg" viewBox="0 0 1440 1437"><filter id="b"><feGaussianBlur stdDeviation="12" /></filter><path d="M0 0h1440v1437H0z" fill="#737074" /><g filter="url(#b)" transform="scale(5.625000) translate(0.5 0.5)"><g transform="translate(183.144484 188.488294) rotate(-52.327110) scale(47.346476 168.014212)"><ellipse fill="#000" fill-opacity=".501961" cx="0" cy="0" rx="1" ry="1" /></g><g transform="translate(11.205854 37.817027) rotate(144.934494) scale(23.634486 54.592083)"><ellipse fill="#fff" fill-opacity=".501961" cx="0" cy="0" rx="1" ry="1" /></g><g transform="translate(172.938937 2.274728) rotate(98.312097) scale(23.109570 92.839813)"><ellipse fill="#fff" fill-opacity=".501961" cx="0" cy="0" rx="1" ry="1" /></g><g transform="translate(83.800960 244.690271) rotate(451.610256) scale(26.237293 83.304063)"><ellipse fill="#f3edf2" fill-opacity=".501961" cx="0" cy="0" rx="1" ry="1" /></g><g transform="translate(211.332269 109.918421) rotate(12.393878) scale(73.742468 16.049801)"><ellipse fill="#fff" fill-opacity=".501961" cx="0" cy="0" rx="1" ry="1" /></g><ellipse fill="#000" fill-opacity=".501961" cx="48" cy="209" rx="99" ry="11" /><path fill="#fffcff" fill-opacity=".501961" d="M124 90 31 50l85-13z" /><path d="M0 0h1440v1437H0z" fill="#fff" /></g></svg>