<svg xmlns="http://www.w3.org/2000/svg" viewBox="0 0 1440 1440"><filter id="b"><feGaussianBlur stdDeviation="12" /></filter><path d="M0 0h1440v1440H0z" fill="#ececec" /><g filter="url(#b)" transform="scale(5.625000) translate(0.5 0.5)"><g transform="translate(151.545649 217.399799) rotate(85.342032) scale(60.656585 255.000000)"><ellipse fill="#d2d2d2" fill-opacity=".501961" cx="0" cy="0" rx="1" ry="1" /></g><g transform="translate(72.073991 72.839966) rotate(476.156452) scale(75.143229 148.019429)"><ellipse fill="#fff" fill-opacity=".501961" cx="0" cy="0" rx="1" ry="1" /></g><path fill="#3e3e3e" fill-opacity=".501961" d="M173.585589 198.076924 184.20705 179.658498 186.114623 156.021297 179.76338 164.407398z" /><path fill="#333" fill-opacity=".501961" d="M93.058837 160.353834 99.758933 168.079322 95.518719 183.781566 90.418239 178.743574z" /><g transform="translate(55.700553 207.517140) rotate(85.769661) scale(23.099661 121.099208)"><ellipse fill="#f1f1f1" fill-opacity=".501961" cx="0" cy="0" rx="1" ry="1" /></g><path fill="#757575" fill-opacity=".501961" d="M89.108091 169.201424 107.702 170.240847 104.130473 202.215511 102.922029 175.391643z" /><g transform="translate(197.662275 255.000000) rotate(83.091682) scale(18.821227 200.029436)"><ellipse fill="#c5c5c5" fill-opacity=".501961" cx="0" cy="0" rx="1" ry="1" /></g><g transform="translate(94.109106 188.008542) rotate(178.861348) scale(2.398125 18.248287)"><ellipse fill="#6e6e6e" fill-opacity=".501961" cx="0" cy="0" rx="1" ry="1" /></g></g></svg>