<svg xmlns="http://www.w3.org/2000/svg" viewBox="0 0 1440 1440"><filter id="b"><feGaussianBlur stdDeviation="12" /></filter><path d="M0 0h1440v1440H0z" fill="#8f8e91" /><g filter="url(#b)" transform="scale(5.625000) translate(0.5 0.5)"><g transform="translate(124.691217 131.568273) rotate(4.610468) scale(31.896669 104.878868)"><ellipse fill="#000" fill-opacity=".501961" cx="0" cy="0" rx="1" ry="1" /></g><g transform="translate(61.655560 36.510324) rotate(229.245050) scale(44.359880 114.244426)"><ellipse fill="#fff" fill-opacity=".501961" cx="0" cy="0" rx="1" ry="1" /></g><g transform="translate(16.573836 152.263016) rotate(257.363106) scale(28.156763 45.112509)"><ellipse fill="#000" fill-opacity=".501961" cx="0" cy="0" rx="1" ry="1" /></g><g transform="translate(69.716689 212.330087) rotate(-47.338621) scale(38.795613 35.371480)"><ellipse fill="#fff" fill-opacity=".501961" cx="0" cy="0" rx="1" ry="1" /></g><g transform="translate(112.400025 126.425648) rotate(270.289646) scale(69.293721 21.077314)"><ellipse fill="#000" fill-opacity=".501961" cx="0" cy="0" rx="1" ry="1" /></g><g transform="translate(215.984941 97.718292) rotate(24.835803) scale(33.227897 65.275137)"><ellipse fill="#e6e4e9" fill-opacity=".501961" cx="0" cy="0" rx="1" ry="1" /></g><path d="M0 0h1440v1440H0z" fill="#000" /><ellipse fill="#fff" fill-opacity=".501961" cx="63" cy="39" rx="45" ry="56" /></g></svg>