<svg xmlns="http://www.w3.org/2000/svg" viewBox="0 0 1440 1440"><filter id="b"><feGaussianBlur stdDeviation="12" /></filter><path d="M0 0h1440v1440H0z" fill="#8c8c8c" /><g filter="url(#b)" transform="scale(5.625000) translate(0.5 0.5)"><g transform="translate(174.343851 112.796461) rotate(396.005349) scale(247.759267 31.892690)"><ellipse fill="#fff" fill-opacity=".501961" cx="0" cy="0" rx="1" ry="1" /></g><g transform="translate(110.754130 152.713501) rotate(117.787128) scale(31.095034 152.223070)"><ellipse fill="#000" fill-opacity=".501961" cx="0" cy="0" rx="1" ry="1" /></g><ellipse fill="#1c1c1c" fill-opacity=".501961" cx="251" cy="11" rx="91" ry="91" /><g transform="translate(93.366995 3.141880) rotate(218.343754) scale(80.336266 11.501177)"><ellipse fill="#000" fill-opacity=".501961" cx="0" cy="0" rx="1" ry="1" /></g><g transform="translate(113.484280 203.302257) rotate(202.896760) scale(168.137926 14.225999)"><ellipse fill="#fff" fill-opacity=".501961" cx="0" cy="0" rx="1" ry="1" /></g><g transform="translate(172.523722 106.674931) rotate(211.633940) scale(146.411805 33.261039)"><ellipse fill="#fff" fill-opacity=".501961" cx="0" cy="0" rx="1" ry="1" /></g><g transform="translate(204.267180 33.778688) rotate(129.202250) scale(12.432671 34.871965)"><ellipse fill="#fff" fill-opacity=".501961" cx="0" cy="0" rx="1" ry="1" /></g><ellipse fill="#fff" fill-opacity=".501961" cx="111" cy="151" rx="15" ry="15" /></g></svg>