<svg xmlns="http://www.w3.org/2000/svg" viewBox="0 0 1440 1440"><filter id="b"><feGaussianBlur stdDeviation="12" /></filter><path d="M0 0h1440v1440H0z" fill="#dcdcdc" /><g filter="url(#b)" transform="scale(5.625000) translate(0.5 0.5)"><ellipse fill="#000" fill-opacity=".501961" cx="120" cy="123" rx="149" ry="5" /><g transform="translate(60.580489 239.220702) rotate(6.373722) scale(255.000000 49.759919)"><ellipse fill="#a8a8a8" fill-opacity=".501961" cx="0" cy="0" rx="1" ry="1" /></g><g transform="translate(131.572570 53.284319) rotate(359.906590) scale(255.000000 63.432717)"><ellipse fill="#fff" fill-opacity=".501961" cx="0" cy="0" rx="1" ry="1" /></g><path fill="#7d7d7d" fill-opacity=".501961" d="M210.371233 97.705766 167.023346 91.665383 233.943108 129.380043 173.431597 120.217867z" /><path fill="#6f6f6f" fill-opacity=".501961" d="M52 136-1 111l127 11z" /><g transform="translate(211.014671 164.629816) rotate(187.213422) scale(198.039650 20.289773)"><ellipse fill="#f8f8f8" fill-opacity=".501961" cx="0" cy="0" rx="1" ry="1" /></g><path fill="#a4a4a4" fill-opacity=".501961" d="M116.749009 115.881112 114.974286 106.692731 77.458319 121.679022 271 120.099018z" /><g transform="translate(77.717594 187.352804) rotate(191.961254) scale(207.681433 22.709616)"><ellipse fill="#cecece" fill-opacity=".501961" cx="0" cy="0" rx="1" ry="1" /></g></g></svg>