<svg xmlns="http://www.w3.org/2000/svg" viewBox="0 0 1440 1440"><filter id="b"><feGaussianBlur stdDeviation="12" /></filter><path d="M0 0h1440v1440H0z" fill="#adaeb0" /><g filter="url(#b)" transform="scale(5.625000) translate(0.5 0.5)"><ellipse fill="#fff" fill-opacity=".501961" cx="118" cy="24" rx="255" ry="37" /><ellipse fill="#565759" fill-opacity=".501961" cx="99" cy="107" rx="62" ry="37" /><ellipse fill="#7c7e7f" fill-opacity=".501961" cx="74" cy="249" rx="198" ry="72" /><g transform="translate(58 10) rotate(258) scale(80 192)"><path d="M0 0h1440v1440H0z" fill="#fff" /></g><g transform="translate(203.387783 78.984138) rotate(32.740261) scale(40.401289 70.250833)"><ellipse fill="#ceced0" fill-opacity=".501961" cx="0" cy="0" rx="1" ry="1" /></g><g transform="translate(131.229589 83.184759) rotate(190.893479) scale(20.308678 30.206022)"><ellipse fill="#55575a" fill-opacity=".501961" cx="0" cy="0" rx="1" ry="1" /></g><g transform="translate(25.758217 117.387564) rotate(39.876682) scale(46.950732 24.899669)"><ellipse fill="#78797b" fill-opacity=".501961" cx="0" cy="0" rx="1" ry="1" /></g><g transform="translate(31.464323 255.000000) rotate(268.125564) scale(27.708676 69.139225)"><ellipse fill="#5d6060" fill-opacity=".501961" cx="0" cy="0" rx="1" ry="1" /></g></g></svg>