<svg xmlns="http://www.w3.org/2000/svg" viewBox="0 0 1440 1440"><filter id="b"><feGaussianBlur stdDeviation="12" /></filter><path d="M0 0h1440v1440H0z" fill="#878787" /><g filter="url(#b)" transform="scale(5.625000) translate(0.5 0.5)"><ellipse fill="#000" fill-opacity=".501961" cx="139" cy="207" rx="89" ry="89" /><ellipse fill="#fff" fill-opacity=".501961" cx="217" cy="42" rx="79" ry="79" /><g transform="translate(61.438320 9.174293) rotate(339.205312) scale(130.262416 31.890264)"><ellipse fill="#fff" fill-opacity=".501961" cx="0" cy="0" rx="1" ry="1" /></g><g transform="translate(128.748628 98.949311) rotate(301.342317) scale(51.008724 22.293297)"><ellipse fill="#fff" fill-opacity=".501961" cx="0" cy="0" rx="1" ry="1" /></g><g transform="translate(255.000000 213.623926) rotate(280.668942) scale(154.760584 30.692281)"><ellipse fill="#fefefe" fill-opacity=".501961" cx="0" cy="0" rx="1" ry="1" /></g><ellipse fill="#000" fill-opacity=".501961" cx="1" cy="113" rx="19" ry="68" /><g transform="translate(208.288026 170.473592) rotate(187.799594) scale(26.234661 62.486398)"><ellipse fill="#070707" fill-opacity=".501961" cx="0" cy="0" rx="1" ry="1" /></g><g transform="translate(19.640276 225.450152) rotate(20.887924) scale(11.670610 57.369783)"><ellipse fill="#000" fill-opacity=".501961" cx="0" cy="0" rx="1" ry="1" /></g></g></svg>